<svg width="192" height="192" viewBox="0 0 192 192" fill="none" xmlns="http://www.w3.org/2000/svg">
  <rect width="192" height="192" rx="40" fill="#4f46e5"/>
  <path d="M96 48C69.5 48 48 69.5 48 96C48 122.5 69.5 144 96 144C122.5 144 144 122.5 144 96C144 69.5 122.5 48 96 48ZM96 128C78.3 128 64 113.7 64 96C64 78.3 78.3 64 96 64C113.7 64 128 78.3 128 96C128 113.7 113.7 128 96 128Z" fill="white"/>
  <path d="M96 72V96L112 108" stroke="white" stroke-width="8" stroke-linecap="round"/>
  <circle cx="96" cy="96" r="56" stroke="white" stroke-width="4"/>
</svg>
